<svg id="visual" viewBox="0 0 960 540" width="960" height="540" xmlns="http://www.w3.org/2000/svg" xmlns:xlink="http://www.w3.org/1999/xlink" version="1.1"><path d="M0 93L22.8 96.5C45.7 100 91.3 107 137 108.8C182.7 110.7 228.3 107.3 274 106.5C319.7 105.7 365.3 107.3 411.2 108.2C457 109 503 109 548.8 107.2C594.7 105.3 640.3 101.7 686 117.8C731.7 134 777.3 170 823 183.5C868.7 197 914.3 188 937.2 183.5L960 179L960 0L937.2 0C914.3 0 868.7 0 823 0C777.3 0 731.7 0 686 0C640.3 0 594.7 0 548.8 0C503 0 457 0 411.2 0C365.3 0 319.7 0 274 0C228.3 0 182.7 0 137 0C91.3 0 45.7 0 22.8 0L0 0Z" fill="#05668d"></path><path d="M0 152L22.8 153C45.7 154 91.3 156 137 154.2C182.7 152.3 228.3 146.7 274 143.8C319.7 141 365.3 141 411.2 141C457 141 503 141 548.8 141C594.7 141 640.3 141 686 157.3C731.7 173.7 777.3 206.3 823 221.7C868.7 237 914.3 235 937.2 234L960 233L960 177L937.2 181.5C914.3 186 868.7 195 823 181.5C777.3 168 731.7 132 686 115.8C640.3 99.7 594.7 103.3 548.8 105.2C503 107 457 107 411.2 106.2C365.3 105.3 319.7 103.7 274 104.5C228.3 105.3 182.7 108.7 137 106.8C91.3 105 45.7 98 22.8 94.5L0 91Z" fill="#006b8f"></path><path d="M0 228L22.8 224.3C45.7 220.7 91.3 213.3 137 212.3C182.7 211.3 228.3 216.7 274 218.5C319.7 220.3 365.3 218.7 411.2 212.5C457 206.3 503 195.7 548.8 193.8C594.7 192 640.3 199 686 221.5C731.7 244 777.3 282 823 301.8C868.7 321.7 914.3 323.3 937.2 324.2L960 325L960 231L937.2 232C914.3 233 868.7 235 823 219.7C777.3 204.3 731.7 171.7 686 155.3C640.3 139 594.7 139 548.8 139C503 139 457 139 411.2 139C365.3 139 319.7 139 274 141.8C228.3 144.7 182.7 150.3 137 152.2C91.3 154 45.7 152 22.8 151L0 150Z" fill="#007090"></path><path d="M0 384L22.8 386.8C45.7 389.7 91.3 395.3 137 400.8C182.7 406.3 228.3 411.7 274 406.2C319.7 400.7 365.3 384.3 411.2 382.5C457 380.7 503 393.3 548.8 406.8C594.7 420.3 640.3 434.7 686 437.3C731.7 440 777.3 431 823 427.5C868.7 424 914.3 426 937.2 427L960 428L960 323L937.2 322.2C914.3 321.3 868.7 319.7 823 299.8C777.3 280 731.7 242 686 219.5C640.3 197 594.7 190 548.8 191.8C503 193.7 457 204.3 411.2 210.5C365.3 216.7 319.7 218.3 274 216.5C228.3 214.7 182.7 209.3 137 210.3C91.3 211.3 45.7 218.7 22.8 222.3L0 226Z" fill="#007690"></path><path d="M0 471L22.8 469.2C45.7 467.3 91.3 463.7 137 464.5C182.7 465.3 228.3 470.7 274 476C319.7 481.3 365.3 486.7 411.2 485.8C457 485 503 478 548.8 479.8C594.7 481.7 640.3 492.3 686 495.8C731.7 499.3 777.3 495.7 823 493C868.7 490.3 914.3 488.7 937.2 487.8L960 487L960 426L937.2 425C914.3 424 868.7 422 823 425.5C777.3 429 731.7 438 686 435.3C640.3 432.7 594.7 418.3 548.8 404.8C503 391.3 457 378.7 411.2 380.5C365.3 382.3 319.7 398.7 274 404.2C228.3 409.7 182.7 404.3 137 398.8C91.3 393.3 45.7 387.7 22.8 384.8L0 382Z" fill="#007b90"></path><path d="M0 541L22.8 541C45.7 541 91.3 541 137 541C182.7 541 228.3 541 274 541C319.7 541 365.3 541 411.2 541C457 541 503 541 548.8 541C594.7 541 640.3 541 686 541C731.7 541 777.3 541 823 541C868.7 541 914.3 541 937.2 541L960 541L960 485L937.2 485.8C914.3 486.7 868.7 488.3 823 491C777.3 493.7 731.7 497.3 686 493.8C640.3 490.3 594.7 479.7 548.8 477.8C503 476 457 483 411.2 483.8C365.3 484.7 319.7 479.3 274 474C228.3 468.7 182.7 463.3 137 462.5C91.3 461.7 45.7 465.3 22.8 467.2L0 469Z" fill="#028090"></path></svg>