<svg id="visual" viewBox="0 0 960 96" width="960" height="96" xmlns="http://www.w3.org/2000/svg" xmlns:xlink="http://www.w3.org/1999/xlink" version="1.1"><rect x="0" y="0" width="960" height="96" fill="#05668D"></rect><path d="M0 53L17.8 51C35.7 49 71.3 45 106.8 44C142.3 43 177.7 45 213.2 45.2C248.7 45.3 284.3 43.7 320 42.3C355.7 41 391.3 40 426.8 43.7C462.3 47.3 497.7 55.7 533.2 53.5C568.7 51.3 604.3 38.7 640 35C675.7 31.3 711.3 36.7 746.8 40.5C782.3 44.3 817.7 46.7 853.2 46.2C888.7 45.7 924.3 42.3 942.2 40.7L960 39L960 0L942.2 0C924.3 0 888.7 0 853.2 0C817.7 0 782.3 0 746.8 0C711.3 0 675.7 0 640 0C604.3 0 568.7 0 533.2 0C497.7 0 462.3 0 426.8 0C391.3 0 355.7 0 320 0C284.3 0 248.7 0 213.2 0C177.7 0 142.3 0 106.8 0C71.3 0 35.7 0 17.8 0L0 0Z" fill="#02C39A" stroke-linecap="round" stroke-linejoin="miter"></path></svg>