<svg id="visual" viewBox="0 0 960 540" width="960" height="540" xmlns="http://www.w3.org/2000/svg" xmlns:xlink="http://www.w3.org/1999/xlink" version="1.1"><rect x="0" y="0" width="960" height="540" fill="#05668D"></rect><path d="M0 127L17.8 118.3C35.7 109.7 71.3 92.3 106.8 84.2C142.3 76 177.7 77 213.2 84C248.7 91 284.3 104 320 104.8C355.7 105.7 391.3 94.3 426.8 97.8C462.3 101.3 497.7 119.7 533.2 120.8C568.7 122 604.3 106 640 97.2C675.7 88.3 711.3 86.7 746.8 94.2C782.3 101.7 817.7 118.3 853.2 118.3C888.7 118.3 924.3 101.7 942.2 93.3L960 85L960 0L942.2 0C924.3 0 888.7 0 853.2 0C817.7 0 782.3 0 746.8 0C711.3 0 675.7 0 640 0C604.3 0 568.7 0 533.2 0C497.7 0 462.3 0 426.8 0C391.3 0 355.7 0 320 0C284.3 0 248.7 0 213.2 0C177.7 0 142.3 0 106.8 0C71.3 0 35.7 0 17.8 0L0 0Z" fill="#02C39A" stroke-linecap="round" stroke-linejoin="miter"></path></svg>